<svg xmlns="http://www.w3.org/2000/svg" width="18.562" height="20" viewBox="0 0 18.562 20">
  <g id="google-play_1" data-name="google-play 1" transform="translate(-0.719)">
    <path id="Vector" d="M10.788,9.671.745,19.342A1.709,1.709,0,0,1,0,17.917V1.426A1.709,1.709,0,0,1,.745,0Z" transform="translate(0.719 0.331)" fill="#2196f3"/>
    <path id="Vector-2" data-name="Vector" d="M13.558,6.624,10.044,10,0,.331A1.339,1.339,0,0,1,.118.249,1.718,1.718,0,0,1,1.853.222Z" transform="translate(1.464 0)" fill="#4caf50"/>
    <path id="Vector-3" data-name="Vector" d="M7.773,3.378a1.736,1.736,0,0,1-.908,1.544L3.514,6.756,0,3.378,3.514,0,6.865,1.834A1.736,1.736,0,0,1,7.773,3.378Z" transform="translate(11.507 6.624)" fill="#f0bb1f"/>
    <path id="Vector-4" data-name="Vector" d="M13.558,3.378,1.853,9.78A1.741,1.741,0,0,1,.118,9.753,1.339,1.339,0,0,1,0,9.671L10.044,0Z" transform="translate(1.464 10.002)" fill="#f15a2b"/>
  </g>
</svg>
