<svg xmlns="http://www.w3.org/2000/svg" width="47" height="48" viewBox="0 0 47 48">
  <g id="Group_12" data-name="Group 12" transform="translate(-186 -2736)">
    <g id="Rectangle_21" data-name="Rectangle 21" transform="translate(186 2736)" fill="#f15a2b" stroke="#707070" stroke-width="1">
      <rect width="47" height="48" rx="13" stroke="none"/>
      <rect x="0.5" y="0.5" width="46" height="47" rx="12.5" fill="none"/>
    </g>
    <g id="water-sport_1" data-name="water-sport 1">
      <g id="Vector" transform="translate(205.676 2766.63)" fill="#fff">
        <path d="M13.143,1.3A2.205,2.205,0,0,1,11.875.929,1.715,1.715,0,0,0,10,.929,2.359,2.359,0,0,1,8.732,1.3,2.359,2.359,0,0,1,7.465.929a1.714,1.714,0,0,0-1.877,0A2.359,2.359,0,0,1,4.321,1.3,2.359,2.359,0,0,1,3.054.929a1.713,1.713,0,0,0-1.876,0,2.193,2.193,0,0,1-1.156.366L0,.646A1.557,1.557,0,0,0,.85.369a2.358,2.358,0,0,1,2.533,0,1.715,1.715,0,0,0,.938.279A1.715,1.715,0,0,0,5.26.369a2.359,2.359,0,0,1,2.535,0,1.715,1.715,0,0,0,.938.279A1.715,1.715,0,0,0,9.671.369a2.36,2.36,0,0,1,2.534,0,1.719,1.719,0,0,0,.941.28,1.719,1.719,0,0,0,.941-.28A2.207,2.207,0,0,1,15.351,0V.65a1.573,1.573,0,0,0-.939.279,2.211,2.211,0,0,1-1.27.369Z" stroke="none"/>
        <path d="M 13.18843650817871 1.298694491386414 C 13.15814399719238 1.298694491386414 13.12782287597656 1.298679947853088 13.09751892089844 1.298680186271667 C 12.66296768188477 1.298685312271118 12.23775100708008 1.170300006866455 11.87546348571777 0.9291395545005798 C 11.59648418426514 0.746849536895752 11.2704439163208 0.6497795581817627 10.93719387054443 0.6497795581817627 C 10.60394382476807 0.6497795581817627 10.27790355682373 0.746849536895752 9.998924255371094 0.9291395545005798 C 9.620304107666016 1.170189499855042 9.180784225463867 1.298219561576843 8.73194408416748 1.298219561576843 C 8.283113479614258 1.298219561576843 7.843594074249268 1.170189499855042 7.464973926544189 0.9291395545005798 C 7.186003684997559 0.7466695308685303 6.859893798828125 0.6494895219802856 6.526544094085693 0.6494895219802856 C 6.193193912506104 0.6494895219802856 5.86708402633667 0.7466695308685303 5.588113784790039 0.9291395545005798 C 5.209494113922119 1.170189499855042 4.769973754882812 1.298219561576843 4.321134090423584 1.298219561576843 C 3.87230396270752 1.298219561576843 3.43277382850647 1.170189499855042 3.054163932800293 0.9291395545005798 C 2.775393962860107 0.7467795610427856 2.449493885040283 0.6496595144271851 2.116383790969849 0.6496595144271851 C 1.783263921737671 0.6496595144271851 1.457363843917847 0.7467795610427856 1.178593873977661 0.9291395545005798 C 0.8353238701820374 1.157259583473206 0.4347238838672638 1.284049510955811 0.02270389348268509 1.294979572296143 L 3.893737812177278e-06 0.6463295221328735 C 0.30433389544487 0.6390995383262634 0.5998839139938354 0.5428095459938049 0.8500539064407349 0.3693495392799377 C 1.22857391834259 0.1283595412969589 1.667983889579773 0.0003495393320918083 2.116703987121582 0.0003495393320918083 C 2.565423965454102 0.0003495393320918083 3.004833936691284 0.1283595412969589 3.38335394859314 0.3693495392799377 C 3.662303924560547 0.5517195463180542 3.988353967666626 0.64883953332901 4.321623802185059 0.64883953332901 C 4.65489387512207 0.64883953332901 4.98094367980957 0.5517195463180542 5.259893894195557 0.3693495392799377 C 5.638564109802246 0.128139540553093 6.078213691711426 -4.606819175023702e-07 6.527194023132324 -4.606819175023702e-07 C 6.976163864135742 -4.606819175023702e-07 7.41581392288208 0.128139540553093 7.794493675231934 0.3693495392799377 C 8.073444366455078 0.5517195463180542 8.399483680725098 0.64883953332901 8.732753753662109 0.64883953332901 C 9.066034317016602 0.64883953332901 9.392084121704102 0.5517195463180542 9.67103385925293 0.3693495392799377 C 10.04967403411865 0.1283795386552811 10.48918342590332 0.0003895393165294081 10.93800354003906 0.0003895393165294081 C 11.3868236541748 0.0003895393165294081 11.82633399963379 0.1283795386552811 12.20497417449951 0.3693495392799377 C 12.48460388183594 0.5521495342254639 12.81144428253174 0.6494995355606079 13.1455135345459 0.6494995355606079 C 13.47959423065186 0.6494995355606079 13.80643367767334 0.5521495342254639 14.0860538482666 0.3693495392799377 C 14.46043395996094 0.1205895468592644 14.9018383026123 -0.007950464263558388 15.35124397277832 0.0009195393067784607 L 15.35124397277832 0.6495695114135742 C 15.01664447784424 0.6404100656509399 14.68783378601074 0.738239586353302 14.41265392303467 0.9288095235824585 C 14.04966449737549 1.170190453529358 13.62366104125977 1.298694491386414 13.18843650817871 1.298694491386414 Z" stroke="none" fill="#707070"/>
      </g>
      <g id="Vector-2" data-name="Vector" transform="translate(198.973 2766.631)" fill="#fff">
        <path d="M2.205,1.3A2.2,2.2,0,0,1,.939.929,1.572,1.572,0,0,0,0,.649V0A2.2,2.2,0,0,1,1.267.37a1.57,1.57,0,0,0,.938.28,1.57,1.57,0,0,0,.939-.28A2.2,2.2,0,0,1,4.409,0,2.177,2.177,0,0,1,5.646.353l-.327.56a1.551,1.551,0,0,0-.91-.264,1.565,1.565,0,0,0-.935.279,2.2,2.2,0,0,1-1.269.37Z" stroke="none"/>
        <path d="M 2.252334117889404 1.298351645469666 C 2.221564531326294 1.298351645469666 2.190659284591675 1.298320770263672 2.159874200820923 1.298321723937988 C 1.725560188293457 1.298334717750549 1.300607919692993 1.169932723045349 0.9385900497436523 0.9287614226341248 C 0.6634700894355774 0.7380314469337463 0.3346498310565948 0.6400916576385498 6.286621356821342e-08 0.6492013931274414 L 6.286621356821342e-08 0.0005514089716598392 C 0.4501700699329376 -0.008798590861260891 0.8924000859260559 0.1200114041566849 1.267130017280579 0.3696314096450806 C 1.542110204696655 0.5604214072227478 1.870849609375 0.6583723425865173 2.205399990081787 0.6492013931274414 C 2.540107011795044 0.658392071723938 2.868989944458008 0.5603213906288147 3.144000053405762 0.3693014085292816 C 3.517939805984497 0.1198214143514633 3.959433078765869 -0.008888589218258858 4.408860206604004 0.0005514089716598392 C 4.847399234771729 -0.00929854903370142 5.278670310974121 0.1135813742876053 5.646160125732422 0.3530914187431335 L 5.318920135498047 0.9128714203834534 C 5.05048942565918 0.7322214245796204 4.732293128967285 0.6400312185287476 4.408860206604004 0.6492013931274414 C 4.075547218322754 0.64021235704422 3.748050212860107 0.7379314303398132 3.474159955978394 0.9281213879585266 C 3.112115859985352 1.169709444046021 2.686886548995972 1.298351645469666 2.252334117889404 1.298351645469666 Z" stroke="none" fill="#707070"/>
      </g>
      <g id="Vector-3" data-name="Vector" transform="translate(198.973 2764.36)" fill="#fff">
        <path d="M19.846,1.3A2.209,2.209,0,0,1,18.578.929a1.717,1.717,0,0,0-1.878,0,2.359,2.359,0,0,1-1.267.369A2.359,2.359,0,0,1,14.166.929a1.714,1.714,0,0,0-1.876,0,2.358,2.358,0,0,1-1.267.369A2.358,2.358,0,0,1,9.757.929a1.714,1.714,0,0,0-1.876,0A2.2,2.2,0,0,1,6.614,1.3,2.2,2.2,0,0,1,5.347.929,1.57,1.57,0,0,0,4.41.649a1.57,1.57,0,0,0-.938.28A2.2,2.2,0,0,1,2.207,1.3,2.2,2.2,0,0,1,.94.929,1.57,1.57,0,0,0,0,.649V0A2.2,2.2,0,0,1,1.267.37a1.572,1.572,0,0,0,.939.28A1.57,1.57,0,0,0,3.143.37,2.2,2.2,0,0,1,4.408,0,2.2,2.2,0,0,1,5.676.37a1.57,1.57,0,0,0,.938.28A1.57,1.57,0,0,0,7.552.37a2.358,2.358,0,0,1,2.534,0,1.714,1.714,0,0,0,.938.28,1.714,1.714,0,0,0,.938-.28A2.358,2.358,0,0,1,14.5.37a1.714,1.714,0,0,0,.938.28,1.714,1.714,0,0,0,.938-.28,2.362,2.362,0,0,1,2.536,0,1.719,1.719,0,0,0,.939.279A1.719,1.719,0,0,0,20.786.37,2.209,2.209,0,0,1,22.054,0V.649a1.573,1.573,0,0,0-.941.28,2.209,2.209,0,0,1-1.267.369Z" stroke="none"/>
        <path d="M 2.161263227462769 1.298271298408508 C 1.726928234100342 1.298280715942383 1.301934957504272 1.169880270957947 0.9398890137672424 0.9287160634994507 C 0.6644690632820129 0.7375861406326294 0.3351088166236877 0.6396278738975525 -9.625243819755269e-07 0.6491460204124451 L -9.625243819755269e-07 0.0004960498190484941 C 0.4500590264797211 -0.008803949691355228 0.8921690583229065 0.1199960485100746 1.266808986663818 0.3695760369300842 C 1.54193902015686 0.5603059530258179 1.870758652687073 0.6582571864128113 2.205409049987793 0.6491460204124451 C 2.539745092391968 0.6582262516021729 2.868249177932739 0.5602761507034302 3.143028974533081 0.3695760369300842 C 3.517058849334717 0.1202462166547775 3.958462238311768 -0.008554123342037201 4.407888889312744 0.0004960498190484941 C 4.858309268951416 -0.009074049070477486 5.300788879394531 0.1197561323642731 5.675679206848145 0.3695760369300842 C 5.950648784637451 0.560366153717041 6.279393672943115 0.6583158373832703 6.613948822021484 0.6491460204124451 C 6.948512077331543 0.6583176255226135 7.277238845825195 0.5603660345077515 7.552218914031982 0.3695760369300842 C 7.930758953094482 0.1284860521554947 8.37022876739502 0.0004160498501732945 8.819028854370117 0.0004160498501732945 C 9.267828941345215 0.0004160498501732945 9.70729923248291 0.1284860521554947 10.08583927154541 0.3695760369300842 C 10.3647289276123 0.5519560575485229 10.69072914123535 0.649086058139801 11.02394866943359 0.649086058139801 C 11.35716915130615 0.649086058139801 11.6831693649292 0.5519560575485229 11.96205902099609 0.3695760369300842 C 12.34059906005859 0.1284860521554947 12.78006935119629 0.0004160498501732945 13.22886943817139 0.0004160498501732945 C 13.677659034729 0.0004160498501732945 14.11713886260986 0.1284860521554947 14.49567890167236 0.3695760369300842 C 14.77456951141357 0.5519560575485229 15.10055923461914 0.649086058139801 15.43378925323486 0.649086058139801 C 15.76700878143311 0.649086058139801 16.09300994873047 0.5519560575485229 16.37189865112305 0.3695760369300842 C 16.75082969665527 0.1285760551691055 17.19059944152832 0.0005760498461313546 17.63967895507812 0.0005760498461313546 C 18.08875846862793 0.0005760498461313546 18.52852821350098 0.1285760551691055 18.9074592590332 0.3695760369300842 C 19.18684959411621 0.5518960356712341 19.51325988769531 0.6489860415458679 19.84686851501465 0.6489860415458679 C 20.18048858642578 0.6489860415458679 20.50688934326172 0.5518960356712341 20.78627967834473 0.3695760369300842 C 21.16134834289551 0.1201562285423279 21.60367012023926 -0.008634135127067566 22.0540599822998 0.0004960498190484941 L 22.0540599822998 0.6491460204124451 C 21.71874809265137 0.6396658420562744 21.38919830322266 0.7376263737678528 21.1135196685791 0.9287160634994507 C 20.73862838745117 1.178006649017334 20.29652404785156 1.306787729263306 19.84637832641602 1.297796010971069 C 19.39597129821777 1.306987285614014 18.95343971252441 1.178196310997009 18.57827949523926 0.9287160634994507 C 18.29905891418457 0.7462460398674011 17.97273826599121 0.6490760445594788 17.63918876647949 0.6490760445594788 C 17.30564880371094 0.6490760445594788 16.97932815551758 0.7462460398674011 16.70010948181152 0.9287160634994507 C 16.32152938842773 1.169696092605591 15.8820686340332 1.297695994377136 15.43329906463623 1.297695994377136 C 14.98452949523926 1.297695994377136 14.54506874084473 1.169696092605591 14.16648864746094 0.9287160634994507 C 13.8876485824585 0.746366024017334 13.5617094039917 0.6492460370063782 13.22853946685791 0.6492460370063782 C 12.89537906646729 0.6492460370063782 12.56942939758301 0.746366024017334 12.29059886932373 0.9287160634994507 C 11.91204929351807 1.169766068458557 11.47256946563721 1.297816038131714 11.02378940582275 1.297816038131714 C 10.57499885559082 1.297816038131714 10.13552856445312 1.169766068458557 9.756978988647461 0.9287160634994507 C 9.47813892364502 0.746366024017334 9.152198791503906 0.6492460370063782 8.819028854370117 0.6492460370063782 C 8.485858917236328 0.6492460370063782 8.159918785095215 0.746366024017334 7.881079196929932 0.9287160634994507 C 7.50645923614502 1.178325891494751 7.064326763153076 1.307134985923767 6.614269256591797 1.297796010971069 C 6.164193630218506 1.307135343551636 5.722078800201416 1.178326010704041 5.347458839416504 0.9287160634994507 C 5.072588920593262 0.7379660606384277 4.74396276473999 0.6400178074836731 4.409519195556641 0.6491460204124451 C 4.0751633644104 0.6400665640830994 3.746668815612793 0.7380161881446838 3.471889019012451 0.9287160634994507 C 3.097869157791138 1.178035974502563 2.656449556350708 1.306849002838135 2.207029104232788 1.297796010971069 C 2.191779851913452 1.298112750053406 2.176491975784302 1.29827094078064 2.161263227462769 1.298271298408508 Z" stroke="none" fill="#707070"/>
      </g>
      <g id="Vector-4" data-name="Vector" transform="translate(215.617 2762.089)" fill="#fff">
        <path d="M3.2,1.3A2.205,2.205,0,0,1,1.935.93,1.572,1.572,0,0,0,1,.65,1.492,1.492,0,0,0,.286.8L0,.219A2.145,2.145,0,0,1,1,0a2.205,2.205,0,0,1,1.268.37A1.719,1.719,0,0,0,3.2.651a1.719,1.719,0,0,0,.941-.28A2.207,2.207,0,0,1,5.41,0V.65a1.573,1.573,0,0,0-.939.279A2.211,2.211,0,0,1,3.2,1.3Z" stroke="none"/>
        <path d="M 3.247564792633057 1.299373507499695 C 3.217273712158203 1.299373507499695 3.186951875686646 1.29935884475708 3.156647920608521 1.299359321594238 C 2.722105026245117 1.299364447593689 2.296888113021851 1.170979142189026 1.93459165096283 0.9298186302185059 C 1.65947151184082 0.7390785813331604 1.330651879310608 0.6411393284797668 0.9960016012191772 0.650248646736145 C 0.75041264295578 0.6418189406394958 0.5065416097640991 0.694178581237793 0.2860516011714935 0.802678644657135 L 1.612243636373023e-06 0.2188986390829086 C 0.3096315860748291 0.06714864820241928 0.6512810587882996 -0.007721364963799715 0.9960016012191772 0.0006286399438977242 C 1.446694850921631 -0.008551394566893578 1.889381766319275 0.1205986738204956 2.264431715011597 0.3706786334514618 C 2.544061660766602 0.5534786581993103 2.870901584625244 0.6508286595344543 3.204971551895142 0.6508286595344543 C 3.539051532745361 0.6508286595344543 3.865891695022583 0.5534786581993103 4.145521640777588 0.3706786334514618 C 4.519731998443604 0.1217485144734383 4.961023807525635 -0.007011222187429667 5.41038179397583 0.001598639995791018 L 5.41038179397583 0.650248646736145 C 5.075774669647217 0.6410896182060242 4.746971607208252 0.7389186024665833 4.471791744232178 0.9294886589050293 C 4.108802318572998 1.170869469642639 3.682798624038696 1.299373507499695 3.247564792633057 1.299373507499695 Z" stroke="none" fill="#707070"/>
      </g>
      <g id="Vector-5" data-name="Vector" transform="translate(198.973 2762.09)" fill="#fff">
        <path d="M15.431,1.3A2.2,2.2,0,0,1,14.166.929a1.714,1.714,0,0,0-1.877,0,2.359,2.359,0,0,1-1.267.369A2.359,2.359,0,0,1,9.756.929a1.715,1.715,0,0,0-1.877,0A2.205,2.205,0,0,1,6.613,1.3,2.2,2.2,0,0,1,5.346.929a1.572,1.572,0,0,0-.939-.28,1.565,1.565,0,0,0-.935.279,2.2,2.2,0,0,1-1.267.37A2.2,2.2,0,0,1,.939.929,1.572,1.572,0,0,0,0,.649V0A2.2,2.2,0,0,1,1.267.37a1.57,1.57,0,0,0,.938.28,1.57,1.57,0,0,0,.939-.28A2.2,2.2,0,0,1,4.409,0,2.2,2.2,0,0,1,5.676.37a1.57,1.57,0,0,0,.938.28A1.572,1.572,0,0,0,7.553.37a2.359,2.359,0,0,1,2.534,0,1.715,1.715,0,0,0,.938.279A1.715,1.715,0,0,0,11.963.37,2.359,2.359,0,0,1,14.5.37a1.645,1.645,0,0,0,.969.279.581.581,0,0,0,.075,0l.086.643a1.513,1.513,0,0,1-.2.01Z" stroke="none"/>
        <path d="M 15.38522243499756 1.298266291618347 C 14.95174503326416 1.29828155040741 14.52764320373535 1.169974684715271 14.16648387908936 0.9290218353271484 C 13.88751411437988 0.7465518116950989 13.56140422821045 0.649371862411499 13.22805404663086 0.649371862411499 C 12.89470386505127 0.649371862411499 12.56859397888184 0.7465518116950989 12.28962421417236 0.9290218353271484 C 11.91100406646729 1.170071840286255 11.47148418426514 1.298111796379089 11.02264404296875 1.298111796379089 C 10.57381439208984 1.298111796379089 10.1342945098877 1.170071840286255 9.755674362182617 0.9290218353271484 C 9.476723670959473 0.7466618418693542 9.150673866271973 0.6495418548583984 8.817403793334961 0.6495418548583984 C 8.484133720397949 0.6495418548583984 8.158083915710449 0.7466618418693542 7.879134178161621 0.9290218353271484 C 7.504574298858643 1.178211808204651 7.062759876251221 1.306882739067078 6.612974166870117 1.297781825065613 C 6.162907600402832 1.30707859992981 5.720803737640381 1.178271889686584 5.346164226531982 0.9287018179893494 C 5.071033954620361 0.7379618883132935 4.742226600646973 0.6400218605995178 4.407564163208008 0.6491318345069885 C 4.074248790740967 0.6401432156562805 3.74675440788269 0.7378718256950378 3.472864151000977 0.9280518293380737 C 3.098164081573486 1.178081750869751 2.655774831771851 1.30713152885437 2.205404043197632 1.297781825065613 C 1.755347013473511 1.307079076766968 1.313234090805054 1.178271889686584 0.9385941028594971 0.9287018179893494 C 0.6634741425514221 0.7379618883132935 0.3346538841724396 0.6400218605995178 4.122467089473503e-06 0.6491318345069885 L 4.122467089473503e-06 0.0004818345187231898 C 0.4501741528511047 -0.00886816717684269 0.8923940658569336 0.1199418306350708 1.267134070396423 0.3695618212223053 C 1.5421142578125 0.5603518486022949 1.870847105979919 0.658302366733551 2.205404043197632 0.6491318345069885 C 2.540112018585205 0.6583307385444641 2.868993997573853 0.5602519512176514 3.144004106521606 0.3692418336868286 C 3.517944097518921 0.119761735200882 3.95944619178772 -0.008958064019680023 4.40886402130127 0.0004818345187231898 C 4.858927249908447 -0.008798258379101753 5.301024436950684 0.1200019270181656 5.675673961639404 0.3695618212223053 C 5.95065450668335 0.5603519082069397 6.279391288757324 0.6583018898963928 6.613944053649902 0.6491318345069885 C 6.948603630065918 0.6582421660423279 7.277414321899414 0.5603017210960388 7.552544116973877 0.3695618212223053 C 7.931154251098633 0.1285218298435211 8.370674133300781 0.0004818345187231898 8.819514274597168 0.0004818345187231898 C 9.268354415893555 0.0004818345187231898 9.707874298095703 0.1285218298435211 10.0864839553833 0.3695618212223053 C 10.36543369293213 0.5519318580627441 10.69148445129395 0.6490518450737 11.02475452423096 0.6490518450737 C 11.35802459716797 0.6490518450737 11.68407440185547 0.5519318580627441 11.9630241394043 0.3695618212223053 C 12.34170436859131 0.1283518373966217 12.78135395050049 0.0002118345000781119 13.23032379150391 0.0002118345000781119 C 13.6793041229248 0.0002118345000781119 14.11895370483398 0.1283518373966217 14.49762439727783 0.3695618212223053 C 14.78335380554199 0.5617517232894897 15.12219524383545 0.6594216823577881 15.46637439727783 0.6488118171691895 C 15.49142265319824 0.6491223573684692 15.51643466949463 0.6478217244148254 15.54129409790039 0.6449118256568909 L 15.62756443023682 1.287721872329712 C 15.56245517730713 1.295321822166443 15.49690437316895 1.298682332038879 15.43135452270508 1.297781825065613 C 15.41599273681641 1.298104524612427 15.40056324005127 1.298265695571899 15.38522243499756 1.298266291618347 Z" stroke="none" fill="#707070"/>
      </g>
      <g id="Vector-6" data-name="Vector" transform="translate(198.973 2759.82)" fill="#fff">
        <path d="M19.846,1.3A2.209,2.209,0,0,1,18.578.929a1.717,1.717,0,0,0-1.878,0,2.359,2.359,0,0,1-1.267.369A2.359,2.359,0,0,1,14.166.929a1.714,1.714,0,0,0-1.876,0,2.358,2.358,0,0,1-1.267.369A2.358,2.358,0,0,1,9.757.929a1.714,1.714,0,0,0-1.876,0A2.2,2.2,0,0,1,6.614,1.3,2.2,2.2,0,0,1,5.347.929,1.57,1.57,0,0,0,4.41.649a1.57,1.57,0,0,0-.938.28A2.2,2.2,0,0,1,2.207,1.3,2.2,2.2,0,0,1,.94.929,1.57,1.57,0,0,0,0,.649V0A2.2,2.2,0,0,1,1.267.37a1.572,1.572,0,0,0,.939.28A1.57,1.57,0,0,0,3.143.37,2.2,2.2,0,0,1,4.408,0,2.2,2.2,0,0,1,5.676.37a1.57,1.57,0,0,0,.938.28A1.57,1.57,0,0,0,7.552.37a2.358,2.358,0,0,1,2.534,0,1.714,1.714,0,0,0,.938.28,1.714,1.714,0,0,0,.938-.28A2.358,2.358,0,0,1,14.5.37a1.714,1.714,0,0,0,.938.28,1.714,1.714,0,0,0,.938-.28,2.362,2.362,0,0,1,2.536,0,1.719,1.719,0,0,0,.939.279A1.719,1.719,0,0,0,20.786.37,2.209,2.209,0,0,1,22.054,0V.649a1.573,1.573,0,0,0-.941.28,2.209,2.209,0,0,1-1.267.369Z" stroke="none"/>
        <path d="M 2.161263227462769 1.298272252082825 C 1.726928234100342 1.298281669616699 1.301934957504272 1.169881224632263 0.9398890137672424 0.9287170171737671 C 0.6644690632820129 0.737587034702301 0.3351088166236877 0.6396292448043823 -9.625243819755269e-07 0.6491469740867615 L -9.625243819755269e-07 0.0004970034933649004 C 0.4500590264797211 -0.008802996017038822 0.8921690583229065 0.1199970096349716 1.266808986663818 0.3695769906044006 C 1.54193902015686 0.5603069663047791 1.870758652687073 0.6582586169242859 2.205409049987793 0.6491469740867615 C 2.539745092391968 0.6582276821136475 2.868249177932739 0.5602771043777466 3.143028974533081 0.3695769906044006 C 3.517058849334717 0.1202471628785133 3.958462238311768 -0.008553169667720795 4.407888889312744 0.0004970034933649004 C 4.858289241790771 -0.009072812274098396 5.300788402557373 0.1197468340396881 5.675679206848145 0.3695769906044006 C 5.950648784637451 0.5603671073913574 6.279393672943115 0.6583172082901001 6.613948822021484 0.6491469740867615 C 6.948512077331543 0.6583176255226135 7.277238845825195 0.5603669881820679 7.552218914031982 0.3695769906044006 C 7.930758953094482 0.1284870058298111 8.37022876739502 0.0004170035244897008 8.819028854370117 0.0004170035244897008 C 9.267828941345215 0.0004170035244897008 9.70729923248291 0.1284870058298111 10.08583927154541 0.3695769906044006 C 10.3647289276123 0.5519570112228394 10.69072914123535 0.6490870118141174 11.02394866943359 0.6490870118141174 C 11.35716915130615 0.6490870118141174 11.6831693649292 0.5519570112228394 11.96205902099609 0.3695769906044006 C 12.34059906005859 0.1284870058298111 12.78006935119629 0.0004170035244897008 13.22886943817139 0.0004170035244897008 C 13.677659034729 0.0004170035244897008 14.11713886260986 0.1284870058298111 14.49567890167236 0.3695769906044006 C 14.77456951141357 0.5519570112228394 15.10055923461914 0.6490870118141174 15.43378925323486 0.6490870118141174 C 15.76700878143311 0.6490870118141174 16.09300994873047 0.5519570112228394 16.37189865112305 0.3695769906044006 C 16.75082969665527 0.1285770088434219 17.19059944152832 0.0005770035204477608 17.63967895507812 0.0005770035204477608 C 18.08875846862793 0.0005770035204477608 18.52852821350098 0.1285770088434219 18.9074592590332 0.3695769906044006 C 19.18684959411621 0.5518969893455505 19.51325988769531 0.6489869952201843 19.84686851501465 0.6489869952201843 C 20.18048858642578 0.6489869952201843 20.50688934326172 0.5518969893455505 20.78627967834473 0.3695769906044006 C 21.16134834289551 0.1201571896672249 21.60367012023926 -0.00863318145275116 22.0540599822998 0.0004970034933649004 L 22.0540599822998 0.6491469740867615 C 21.71874809265137 0.6396672129631042 21.38919830322266 0.7376273274421692 21.1135196685791 0.9287170171737671 C 20.73862838745117 1.17800760269165 20.29652404785156 1.306787729263306 19.84637832641602 1.297796964645386 C 19.39597129821777 1.306987285614014 18.95343971252441 1.178207159042358 18.57827949523926 0.9287170171737671 C 18.29905891418457 0.7462469935417175 17.97273826599121 0.6490769982337952 17.63918876647949 0.6490769982337952 C 17.30564880371094 0.6490769982337952 16.97932815551758 0.7462469935417175 16.70010948181152 0.9287170171737671 C 16.32152938842773 1.169697046279907 15.8820686340332 1.297696948051453 15.43329906463623 1.297696948051453 C 14.98452949523926 1.297696948051453 14.54506874084473 1.169697046279907 14.16648864746094 0.9287170171737671 C 13.8876485824585 0.7463669776916504 13.5617094039917 0.6492469906806946 13.22853946685791 0.6492469906806946 C 12.89537906646729 0.6492469906806946 12.56942939758301 0.7463669776916504 12.29059886932373 0.9287170171737671 C 11.91204929351807 1.169767022132874 11.47256946563721 1.29781699180603 11.02378940582275 1.29781699180603 C 10.57499885559082 1.29781699180603 10.13552856445312 1.169767022132874 9.756978988647461 0.9287170171737671 C 9.47813892364502 0.7463669776916504 9.152198791503906 0.6492469906806946 8.819028854370117 0.6492469906806946 C 8.485858917236328 0.6492469906806946 8.159918785095215 0.7463669776916504 7.881079196929932 0.9287170171737671 C 7.50645923614502 1.178326845169067 7.064326763153076 1.307138442993164 6.614269256591797 1.297796964645386 C 6.164193630218506 1.307135343551636 5.722078800201416 1.178327083587646 5.347458839416504 0.9287170171737671 C 5.072588920593262 0.7379670143127441 4.74396276473999 0.6400178074836731 4.409519195556641 0.6491469740867615 C 4.0751633644104 0.640067994594574 3.746668815612793 0.7380171418190002 3.471889019012451 0.9287170171737671 C 3.097869157791138 1.17803692817688 2.656449556350708 1.306849002838135 2.207029104232788 1.297796964645386 C 2.191779851913452 1.298113703727722 2.176491975784302 1.298271894454956 2.161263227462769 1.298272252082825 Z" stroke="none" fill="#707070"/>
      </g>
      <g id="Vector-7" data-name="Vector" transform="translate(208.756 2750.069)" fill="#fff">
        <path d="M5.442,10.773l-.612-.215a3.555,3.555,0,0,0-.19-2.784L2.412,3.413a.324.324,0,0,1,.205-.461l4.44-1.184A.567.567,0,0,0,6.78.668L1.406,1.952a.769.769,0,0,0-.5,1.114L2.5,6.03a.324.324,0,0,1-.13.438L.313,7.6,0,7.035l1.778-.98L.336,3.373a1.418,1.418,0,0,1,.921-2.052L6.628.037a1.216,1.216,0,1,1,.6,2.358L3.172,3.475l2.046,4a4.206,4.206,0,0,1,.224,3.294Z" stroke="none"/>
        <path d="M 5.441834449768066 10.77348899841309 L 4.829834461212158 10.55878925323486 C 4.987464427947998 10.10592937469482 5.051854610443115 9.625869750976562 5.019144535064697 9.147489547729492 C 4.986424446105957 8.669109344482422 4.857274532318115 8.202289581298828 4.639464378356934 7.77510929107666 L 2.411674499511719 3.412619352340698 C 2.389674663543701 3.369539499282837 2.377594470977783 3.322089433670044 2.376314640045166 3.27372932434082 C 2.37503457069397 3.225379467010498 2.384584665298462 3.177349328994751 2.404264688491821 3.133169412612915 C 2.423944473266602 3.088979482650757 2.453264474868774 3.049759387969971 2.490074634552002 3.018369436264038 C 2.526874542236328 2.986979484558105 2.570234537124634 2.964219331741333 2.616974592208862 2.951759338378906 L 7.056654453277588 1.767979383468628 C 7.201324462890625 1.730139374732971 7.325214385986328 1.636699438095093 7.401354789733887 1.507989406585693 C 7.477484703063965 1.379279375076294 7.499714374542236 1.225709438323975 7.463204383850098 1.080699443817139 C 7.426694393157959 0.9356793761253357 7.334394454956055 0.8109493851661682 7.206394672393799 0.7336294054985046 C 7.078384399414062 0.656319260597229 6.925024032592773 0.6326894760131836 6.779674530029297 0.6678693890571594 L 1.406274557113647 1.952189445495605 C 1.291404604911804 1.979339361190796 1.184324622154236 2.032559394836426 1.093324542045593 2.107739448547363 C 1.002334594726562 2.182919502258301 0.9298645853996277 2.278039455413818 0.8815445899963379 2.385729312896729 C 0.8332145810127258 2.493409395217896 0.8103345632553101 2.610779285430908 0.8146545886993408 2.728729486465454 C 0.8189845681190491 2.846689462661743 0.8504045605659485 2.962059497833252 0.9064845442771912 3.065919399261475 L 2.502164602279663 6.03024959564209 C 2.5426344871521 6.105589389801025 2.551714658737183 6.193859577178955 2.527414560317993 6.275869369506836 C 2.503124475479126 6.357869148254395 2.447414636611938 6.426949501037598 2.372434616088867 6.468079566955566 L 0.3129745721817017 7.603219509124756 L 4.57229634776013e-06 7.034999370574951 L 1.777944564819336 6.05488920211792 L 0.3360045850276947 3.373379468917847 C 0.2328445762395859 3.181959390640259 0.1751045733690262 2.969369411468506 0.1672345697879791 2.752059459686279 C 0.1593645662069321 2.534749269485474 0.2015745788812637 2.318549394607544 0.2906145751476288 2.120159387588501 C 0.3796445727348328 1.921769380569458 0.5131245851516724 1.746519327163696 0.6807045936584473 1.607959389686584 C 0.8482945561408997 1.46938943862915 1.045494556427002 1.371229410171509 1.257084608078003 1.321059346199036 L 6.627894401550293 0.03705938532948494 C 6.94056510925293 -0.04195062816143036 7.271804809570312 0.006489403080195189 7.548764705657959 0.1717093884944916 C 7.825724601745605 0.3369393944740295 8.025694847106934 0.605419397354126 8.104704856872559 0.9180793762207031 C 8.183704376220703 1.230749368667603 8.135274887084961 1.561999440193176 7.970044612884521 1.838959336280823 C 7.804824352264404 2.115909337997437 7.536344528198242 2.315889358520508 7.223674774169922 2.394899368286133 L 3.17156457901001 3.474889278411865 L 5.217404365539551 7.479649543762207 C 5.475014686584473 7.985169410705566 5.627704620361328 8.537569046020508 5.666274547576904 9.103629112243652 C 5.70484447479248 9.669689178466797 5.628504753112793 10.23769950866699 5.441834449768066 10.77348899841309 Z" stroke="none" fill="#707070"/>
      </g>
      <g id="Vector-8" data-name="Vector" transform="matrix(0.876, -0.483, 0.483, 0.876, 203.681, 2759.906)" fill="#fff">
        <path d="M0,0H4.5V.648H0Z" stroke="none"/>
        <path d="M -4.76837158203125e-07 2.205371856689453e-06 L 4.5 2.205371856689453e-06 L 4.5 0.6483222246170044 L -4.76837158203125e-07 0.6483222246170044 L -4.76837158203125e-07 2.205371856689453e-06 Z" stroke="none" fill="#707070"/>
      </g>
      <g id="Vector-9" data-name="Vector" transform="translate(214.703 2753.82)" fill="#fff">
        <path d="M2.432,4.865a2.435,2.435,0,1,1,1.719-.713,2.432,2.432,0,0,1-1.719.713Zm0-4.216a1.786,1.786,0,1,0,1.261.523A1.784,1.784,0,0,0,2.432.649Z" stroke="none"/>
        <path d="M 2.432432174682617 4.86486291885376 C 1.951342105865479 4.86486291885376 1.481052160263062 4.722203254699707 1.081042170524597 4.454923152923584 C 0.681032121181488 4.187643051147461 0.3692621290683746 3.807753086090088 0.1851621270179749 3.363283157348633 C 0.001052127568982542 2.918812990188599 -0.04711787402629852 2.429733037948608 0.04674212634563446 1.95788311958313 C 0.1405921280384064 1.486043095588684 0.3722621202468872 1.05262303352356 0.7124421000480652 0.7124430537223816 C 1.052622079849243 0.3722630739212036 1.486042141914368 0.1405930817127228 1.957892179489136 0.04674308001995087 C 2.429732084274292 -0.04711684957146645 2.918811798095703 0.001053018728271127 3.363282203674316 0.1851630806922913 C 3.807752132415771 0.369263082742691 4.187642097473145 0.6810330748558044 4.454922199249268 1.081043124198914 C 4.722202301025391 1.481053113937378 4.864861965179443 1.951343059539795 4.864861965179443 2.432433128356934 C 4.864171981811523 3.077342987060547 4.607682228088379 3.695643186569214 4.151662349700928 4.151663303375244 C 3.695642232894897 4.607683181762695 3.07734203338623 4.86417293548584 2.432432174682617 4.86486291885376 Z M 2.432432174682617 0.6486530900001526 C 2.079632043838501 0.6486530900001526 1.734752178192139 0.7532630562782288 1.441412091255188 0.9492731094360352 C 1.148072123527527 1.145273089408875 0.9194421172142029 1.423863053321838 0.7844321131706238 1.749803066253662 C 0.6494221091270447 2.075752973556519 0.6140921115875244 2.434413194656372 0.6829221248626709 2.780433177947998 C 0.7517521381378174 3.126453161239624 0.9216421246528625 3.444293022155762 1.171102166175842 3.693753004074097 C 1.4205721616745 3.943222999572754 1.738412141799927 4.113112926483154 2.084432125091553 4.181942939758301 C 2.4304518699646 4.250763893127441 2.789112091064453 4.215443134307861 3.115052223205566 4.080432891845703 C 3.441002130508423 3.945423126220703 3.719582080841064 3.716793060302734 3.915592193603516 3.423453092575073 C 4.111592292785645 3.13010311126709 4.216212272644043 2.785233020782471 4.216212272644043 2.432433128356934 C 4.215611934661865 1.95952308177948 4.027482032775879 1.506163120269775 3.693092107772827 1.171773076057434 C 3.358702182769775 0.8373730778694153 2.905332088470459 0.6492530703544617 2.432432174682617 0.6486530900001526 Z" stroke="none" fill="#707070"/>
      </g>
    </g>
  </g>
</svg>
