<svg xmlns="http://www.w3.org/2000/svg" width="47" height="48" viewBox="0 0 47 48">
  <g id="Group_7" data-name="Group 7" transform="translate(-186 -2624)">
    <g id="Rectangle_21" data-name="Rectangle 21" transform="translate(186 2624)" fill="#f0bb1f" stroke="#000" stroke-width="1">
      <rect width="47" height="48" rx="13" stroke="none"/>
      <rect x="0.5" y="0.5" width="46" height="47" rx="12.5" fill="none"/>
    </g>
    <g id="selection_1" data-name="selection 1">
      <g id="Group">
        <g id="Group-2" data-name="Group">
          <g id="Vector" transform="translate(221 2637) rotate(180)" fill="#fff">
            <path d="M 21.45539093017578 -0.5 L 18.06373023986816 -0.5 C 18.04487037658691 -0.5 18.02450942993164 -0.5170599818229675 18.02450942993164 -0.5446100234985352 L 18.02450942993164 -1.725489974021912 L 18.02450942993164 -2.225490093231201 L 17.52450942993164 -2.225490093231201 L 4.475490093231201 -2.225490093231201 L 3.975490093231201 -2.225490093231201 L 3.975490093231201 -1.725489974021912 L 3.975490093231201 -0.5446100234985352 C 3.975490093231201 -0.5222831964492798 3.953663349151611 -0.5015025734901428 3.929168939590454 -0.5 L 0.5446100234985352 -0.5 C 0.5239979028701782 -0.5 0.5015954375267029 -0.520488977432251 0.5 -0.5512394309043884 L 0.5 -3.936269998550415 C 0.5 -3.955130100250244 0.5170599818229675 -3.975490093231201 0.5446100234985352 -3.975490093231201 L 1.725489974021912 -3.975490093231201 L 2.225490093231201 -3.975490093231201 L 2.225490093231201 -4.475490093231201 L 2.225490093231201 -17.52450942993164 L 2.225490093231201 -18.02450942993164 L 1.725489974021912 -18.02450942993164 L 0.5446100234985352 -18.02450942993164 C 0.5222831964492798 -18.02450942993164 0.5015025734901428 -18.04633712768555 0.5 -18.07083129882812 L 0.5 -21.45539093017578 C 0.5 -21.47600173950195 0.520488977432251 -21.49840545654297 0.5512394309043884 -21.5 L 3.936269998550415 -21.5 C 3.955130100250244 -21.5 3.975490093231201 -21.48294067382812 3.975490093231201 -21.45539093017578 L 3.975490093231201 -20.27450942993164 L 3.975490093231201 -19.77450942993164 L 4.475490093231201 -19.77450942993164 L 17.52450942993164 -19.77450942993164 L 18.02450942993164 -19.77450942993164 L 18.02450942993164 -20.27450942993164 L 18.02450942993164 -21.45539093017578 C 18.02450942993164 -21.47771644592285 18.04633712768555 -21.49849700927734 18.07083129882812 -21.5 L 21.45539093017578 -21.5 C 21.47600173950195 -21.5 21.49840545654297 -21.47951126098633 21.5 -21.44876098632812 L 21.5 -18.06373023986816 C 21.5 -18.04487037658691 21.48294067382812 -18.02450942993164 21.45539093017578 -18.02450942993164 L 20.27450942993164 -18.02450942993164 L 19.77450942993164 -18.02450942993164 L 19.77450942993164 -17.52450942993164 L 19.77450942993164 -4.475490093231201 L 19.77450942993164 -3.975490093231201 L 20.27450942993164 -3.975490093231201 L 21.45539093017578 -3.975490093231201 C 21.47771644592285 -3.975490093231201 21.49849700927734 -3.953663349151611 21.5 -3.929168939590454 L 21.5 -0.5446100234985352 C 21.5 -0.5187600255012512 21.48123931884766 -0.5 21.45539093017578 -0.5 Z M 18.10293960571289 -3.897059917449951 L 18.10293960571289 -3.397059917449951 L 18.10293960571289 -1.07843005657196 L 18.10293960571289 -0.5784299969673157 L 18.60293960571289 -0.5784299969673157 L 20.92156982421875 -0.5784299969673157 L 21.42156982421875 -0.5784299969673157 L 21.42156982421875 -1.07843005657196 L 21.42156982421875 -3.397059917449951 L 21.42156982421875 -3.897059917449951 L 20.92156982421875 -3.897059917449951 L 18.60293960571289 -3.897059917449951 L 18.10293960571289 -3.897059917449951 Z M 0.5784299969673157 -3.897059917449951 L 0.5784299969673157 -3.397059917449951 L 0.5784299969673157 -1.07843005657196 L 0.5784299969673157 -0.5784299969673157 L 1.07843005657196 -0.5784299969673157 L 3.397059917449951 -0.5784299969673157 L 3.897059917449951 -0.5784299969673157 L 3.897059917449951 -1.07843005657196 L 3.897059917449951 -3.397059917449951 L 3.897059917449951 -3.897059917449951 L 3.397059917449951 -3.897059917449951 L 1.07843005657196 -3.897059917449951 L 0.5784299969673157 -3.897059917449951 Z M 2.303920030593872 -18.02450942993164 L 2.303920030593872 -17.52450942993164 L 2.303920030593872 -4.475490093231201 L 2.303920030593872 -3.975490093231201 L 2.803920030593872 -3.975490093231201 L 3.936269998550415 -3.975490093231201 C 3.956799983978271 -3.975490093231201 3.975490093231201 -3.956799983978271 3.975490093231201 -3.936269998550415 L 3.975490093231201 -2.803920030593872 L 3.975490093231201 -2.303920030593872 L 4.475490093231201 -2.303920030593872 L 17.52450942993164 -2.303920030593872 L 18.02450942993164 -2.303920030593872 L 18.02450942993164 -2.803920030593872 L 18.02450942993164 -3.936269998550415 C 18.02450942993164 -3.956799983978271 18.04319953918457 -3.975490093231201 18.06373023986816 -3.975490093231201 L 19.19607925415039 -3.975490093231201 L 19.69607925415039 -3.975490093231201 L 19.69607925415039 -4.475490093231201 L 19.69607925415039 -17.52450942993164 L 19.69607925415039 -18.02450942993164 L 19.19607925415039 -18.02450942993164 L 18.06373023986816 -18.02450942993164 C 18.04319953918457 -18.02450942993164 18.02450942993164 -18.04319953918457 18.02450942993164 -18.06373023986816 L 18.02450942993164 -19.19607925415039 L 18.02450942993164 -19.69607925415039 L 17.52450942993164 -19.69607925415039 L 4.475490093231201 -19.69607925415039 L 3.975490093231201 -19.69607925415039 L 3.975490093231201 -19.19607925415039 L 3.975490093231201 -18.06373023986816 C 3.975490093231201 -18.04319953918457 3.956799983978271 -18.02450942993164 3.936269998550415 -18.02450942993164 L 2.803920030593872 -18.02450942993164 L 2.303920030593872 -18.02450942993164 Z M 18.10293960571289 -21.42156982421875 L 18.10293960571289 -20.92156982421875 L 18.10293960571289 -18.60293960571289 L 18.10293960571289 -18.10293960571289 L 18.60293960571289 -18.10293960571289 L 20.92156982421875 -18.10293960571289 L 21.42156982421875 -18.10293960571289 L 21.42156982421875 -18.60293960571289 L 21.42156982421875 -20.92156982421875 L 21.42156982421875 -21.42156982421875 L 20.92156982421875 -21.42156982421875 L 18.60293960571289 -21.42156982421875 L 18.10293960571289 -21.42156982421875 Z M 0.5784299969673157 -21.42156982421875 L 0.5784299969673157 -20.92156982421875 L 0.5784299969673157 -18.60293960571289 L 0.5784299969673157 -18.10293960571289 L 1.07843005657196 -18.10293960571289 L 3.397059917449951 -18.10293960571289 L 3.897059917449951 -18.10293960571289 L 3.897059917449951 -18.60293960571289 L 3.897059917449951 -20.92156982421875 L 3.897059917449951 -21.42156982421875 L 3.397059917449951 -21.42156982421875 L 1.07843005657196 -21.42156982421875 L 0.5784299969673157 -21.42156982421875 Z" stroke="none"/>
            <path d="M 21.45539093017578 1.77635683940025e-15 L 18.06373023986816 1.77635683940025e-15 C 17.76716041564941 1.77635683940025e-15 17.52450942993164 -0.2426500022411346 17.52450942993164 -0.5446100234985352 L 17.52450942993164 -1.725489974021912 L 4.475490093231201 -1.725489974021912 L 4.475490093231201 -0.5446100234985352 C 4.475490093231201 -0.2480400055646896 4.232840061187744 -0.005390000063925982 3.936269998550415 1.77635683940025e-15 L 0.5446100234985352 1.77635683940025e-15 C 0.2480400055646896 1.77635683940025e-15 0.005390000063925982 -0.2426500022411346 -1.77635683940025e-15 -0.5446100234985352 L -1.77635683940025e-15 -3.936269998550415 C -1.77635683940025e-15 -4.232840061187744 0.2426500022411346 -4.475490093231201 0.5446100234985352 -4.475490093231201 L 1.725489974021912 -4.475490093231201 L 1.725489974021912 -17.52450942993164 L 0.5446100234985352 -17.52450942993164 C 0.2480400055646896 -17.52450942993164 0.005390000063925982 -17.76716041564941 -1.77635683940025e-15 -18.06373023986816 L -1.77635683940025e-15 -21.45539093017578 C -1.77635683940025e-15 -21.75196075439453 0.2426500022411346 -21.99460983276367 0.5446100234985352 -22 L 3.936269998550415 -22 C 4.232840061187744 -22 4.475490093231201 -21.75735092163086 4.475490093231201 -21.45539093017578 L 4.475490093231201 -20.27450942993164 L 17.52450942993164 -20.27450942993164 L 17.52450942993164 -21.45539093017578 C 17.52450942993164 -21.75196075439453 17.76716041564941 -21.99460983276367 18.06373023986816 -22 L 21.45539093017578 -22 C 21.75196075439453 -22 21.99460983276367 -21.75735092163086 22 -21.45539093017578 L 22 -18.06373023986816 C 22 -17.76716041564941 21.75735092163086 -17.52450942993164 21.45539093017578 -17.52450942993164 L 20.27450942993164 -17.52450942993164 L 20.27450942993164 -4.475490093231201 L 21.45539093017578 -4.475490093231201 C 21.75196075439453 -4.475490093231201 21.99460983276367 -4.232840061187744 22 -3.936269998550415 L 22 -0.5446100234985352 C 22 -0.2426500022411346 21.75735092163086 1.77635683940025e-15 21.45539093017578 1.77635683940025e-15 Z M 18.60293960571289 -3.397059917449951 L 18.60293960571289 -1.07843005657196 L 20.92156982421875 -1.07843005657196 L 20.92156982421875 -3.397059917449951 L 18.60293960571289 -3.397059917449951 Z M 1.07843005657196 -3.397059917449951 L 1.07843005657196 -1.07843005657196 L 3.397059917449951 -1.07843005657196 L 3.397059917449951 -3.397059917449951 L 1.07843005657196 -3.397059917449951 Z M 2.803920030593872 -17.52450942993164 L 2.803920030593872 -4.475490093231201 L 3.936269998550415 -4.475490093231201 C 4.232840061187744 -4.475490093231201 4.475490093231201 -4.232840061187744 4.475490093231201 -3.936269998550415 L 4.475490093231201 -2.803920030593872 L 17.52450942993164 -2.803920030593872 L 17.52450942993164 -3.936269998550415 C 17.52450942993164 -4.232840061187744 17.76716041564941 -4.475490093231201 18.06373023986816 -4.475490093231201 L 19.19607925415039 -4.475490093231201 L 19.19607925415039 -17.52450942993164 L 18.06373023986816 -17.52450942993164 C 17.76716041564941 -17.52450942993164 17.52450942993164 -17.76716041564941 17.52450942993164 -18.06373023986816 L 17.52450942993164 -19.19607925415039 L 4.475490093231201 -19.19607925415039 L 4.475490093231201 -18.06373023986816 C 4.475490093231201 -17.76716041564941 4.232840061187744 -17.52450942993164 3.936269998550415 -17.52450942993164 L 2.803920030593872 -17.52450942993164 Z M 18.60293960571289 -20.92156982421875 L 18.60293960571289 -18.60293960571289 L 20.92156982421875 -18.60293960571289 L 20.92156982421875 -20.92156982421875 L 18.60293960571289 -20.92156982421875 Z M 1.07843005657196 -20.92156982421875 L 1.07843005657196 -18.60293960571289 L 3.397059917449951 -18.60293960571289 L 3.397059917449951 -20.92156982421875 L 1.07843005657196 -20.92156982421875 Z" stroke="none" fill="#000"/>
          </g>
        </g>
      </g>
    </g>
  </g>
</svg>
