<?xml version="1.0" encoding="UTF-8" standalone="no"?>
<svg
   width="21"
   height="18"
   viewBox="0 0 21 18"
   version="1.1"
   id="svg9"
   sodipodi:docname="mail-edited.svg"
   xmlns:inkscape="http://www.inkscape.org/namespaces/inkscape"
   xmlns:sodipodi="http://sodipodi.sourceforge.net/DTD/sodipodi-0.dtd"
   xmlns="http://www.w3.org/2000/svg"
   xmlns:svg="http://www.w3.org/2000/svg">
  <defs
     id="defs13" />
  <sodipodi:namedview
     id="namedview11"
     pagecolor="#ffffff"
     bordercolor="#666666"
     borderopacity="1.0"
     inkscape:pageshadow="2"
     inkscape:pageopacity="0.0"
     inkscape:pagecheckerboard="0"
     showgrid="false"
     inkscape:zoom="28.888889"
     inkscape:cx="10.505769"
     inkscape:cy="9.0173077"
     inkscape:window-width="1366"
     inkscape:window-height="705"
     inkscape:window-x="-8"
     inkscape:window-y="-8"
     inkscape:window-maximized="1"
     inkscape:current-layer="svg9" />
  <g
     id="Group_46"
     data-name="Group 46"
     transform="translate(-418 -4133)">
    <path
       style="color:#000000;fill:#39425d;stroke-linecap:round;-inkscape-stroke:none"
       d="m -0.0703125,-0.49414063 a 0.5,0.5 0 0 0 -0.33007813,0.19335938 0.5,0.5 0 0 0 0.0996094,0.70117188 L 6,5.125 12.300781,0.40039063 a 0.5,0.5 0 0 0 0.09961,-0.70117188 0.5,0.5 0 0 0 -0.701172,-0.0996094 L 6,3.875 0.30078125,-0.40039063 a 0.5,0.5 0 0 0 -0.37109375,-0.09375 z"
       id="Vector_5"
       transform="translate(422 4139)" />
    <g
       id="Rectangle_22"
       data-name="Rectangle 22"
       transform="translate(418 4133)"
       fill="none"
       stroke="#39425d"
       stroke-width="1">
      <g
         id="g187" />
      <rect
         width="21"
         height="18"
         rx="5"
         stroke="none"
         id="rect3" />
      <path
         style="color:#000000;fill:#39425d;-inkscape-stroke:none"
         d="m 5,0.44921875 c -2.7613486,0 -5,2.23865135 -5,4.99999995 v 8.0000003 c 0,2.761348 2.2386514,5 5,5 h 11 c 2.761349,0 5,-2.238652 5,-5 V 5.4492187 C 21,2.6878701 18.761349,0.44921875 16,0.44921875 Z M 5,1.4492187 h 11 c 2.224646,0 4,1.7753537 4,4 v 8.0000003 c 0,2.224646 -1.775354,4 -4,4 H 5 c -2.2246464,0 -4,-1.775354 -4,-4 V 5.4492187 c 0,-2.2246463 1.7753536,-4 4,-4 z"
         id="rect5" />
    </g>
  </g>
</svg>
